<?xml version="1.0"?>
<mxfile host="Electron" modified="2022-06-26T13:50:08.873Z" agent="5.0 (X11; Linux x86_64) AppleWebKit/537.36 (KHTML, like Gecko) draw.io/18.1.3 Chrome/100.0.4896.143 Electron/18.2.3 Safari/537.36" etag="mNGyPTveRbKhJKBuwo4D" version="18.1.3">
  <diagram id="Mi4vo-P_HtHrIlNZv_10" name="Page-1">
    <mxGraphModel dx="2" dy="1" grid="1" gridSize="10" guides="1" tooltips="1" connect="1" arrows="1" fold="1" page="1" pageScale="1" pageWidth="850" pageHeight="1100" math="0" shadow="0">
      <root>
        <mxCell id="0"/>
        <mxCell id="1" parent="0"/>
        <mxCell id="1qMsUIi2s9RzqLhKU2Hj-10" value="" style="rounded=1;whiteSpace=wrap;html=1;fillColor=none;strokeColor=#666666;sketch=1;dashed=1;fontColor=#333333;" parent="1" vertex="1">
          <mxGeometry x="70" y="70" width="200" height="40" as="geometry"/>
        </mxCell>
        <mxCell id="1qMsUIi2s9RzqLhKU2Hj-1" value="resource0" style="rounded=0;whiteSpace=wrap;html=1;fillColor=#dae8fc;strokeColor=#6c8ebf;sketch=1;" parent="1" vertex="1">
          <mxGeometry x="80" y="80" width="60" height="20" as="geometry"/>
        </mxCell>
        <mxCell id="1qMsUIi2s9RzqLhKU2Hj-2" value="resource1" style="rounded=0;whiteSpace=wrap;html=1;fillColor=#d5e8d4;strokeColor=#82b366;sketch=1;" parent="1" vertex="1">
          <mxGeometry x="140" y="80" width="60" height="20" as="geometry"/>
        </mxCell>
        <mxCell id="1qMsUIi2s9RzqLhKU2Hj-3" value="resource2" style="rounded=0;whiteSpace=wrap;html=1;fillColor=#ffe6cc;strokeColor=#d79b00;sketch=1;" parent="1" vertex="1">
          <mxGeometry x="200" y="80" width="60" height="20" as="geometry"/>
        </mxCell>
        <mxCell id="1qMsUIi2s9RzqLhKU2Hj-7" value="" style="endArrow=none;dashed=1;html=1;rounded=0;strokeWidth=6;dashPattern=1 4;sketch=1;fillColor=#ffe6cc;strokeColor=#d79b00;" parent="1" edge="1">
          <mxGeometry width="50" height="50" relative="1" as="geometry">
            <mxPoint x="200" y="79.33000000000004" as="sourcePoint"/>
            <mxPoint x="260" y="79.33000000000004" as="targetPoint"/>
          </mxGeometry>
        </mxCell>
        <mxCell id="1qMsUIi2s9RzqLhKU2Hj-11" value="layer" style="text;html=1;align=center;verticalAlign=middle;resizable=0;points=[];autosize=1;strokeColor=none;fillColor=none;" parent="1" vertex="1">
          <mxGeometry x="10" y="80" width="40" height="20" as="geometry"/>
        </mxCell>
        <mxCell id="1qMsUIi2s9RzqLhKU2Hj-13" value="" style="endArrow=none;html=1;rounded=1;sketch=1;strokeWidth=1;dashed=1;fillColor=#f5f5f5;strokeColor=#666666;startArrow=classic;startFill=1;" parent="1" source="1qMsUIi2s9RzqLhKU2Hj-11" target="1qMsUIi2s9RzqLhKU2Hj-10" edge="1">
          <mxGeometry width="50" height="50" relative="1" as="geometry">
            <mxPoint x="240" y="220" as="sourcePoint"/>
            <mxPoint x="80" y="120" as="targetPoint"/>
          </mxGeometry>
        </mxCell>
        <mxCell id="1qMsUIi2s9RzqLhKU2Hj-14" value="" style="ellipse;whiteSpace=wrap;html=1;dashed=1;sketch=1;fillColor=none;strokeColor=#d79b00;" parent="1" vertex="1">
          <mxGeometry x="190" y="70" width="80" height="20" as="geometry"/>
        </mxCell>
        <mxCell id="1qMsUIi2s9RzqLhKU2Hj-6" value="" style="endArrow=none;dashed=1;html=1;rounded=0;strokeWidth=6;dashPattern=1 4;sketch=1;fillColor=#d5e8d4;strokeColor=#82b366;" parent="1" edge="1">
          <mxGeometry width="50" height="50" relative="1" as="geometry">
            <mxPoint x="140" y="79.33000000000004" as="sourcePoint"/>
            <mxPoint x="200" y="79.33000000000004" as="targetPoint"/>
          </mxGeometry>
        </mxCell>
        <mxCell id="1qMsUIi2s9RzqLhKU2Hj-5" value="" style="endArrow=none;dashed=1;html=1;rounded=0;strokeWidth=6;dashPattern=1 4;sketch=1;fillColor=#dae8fc;strokeColor=#6c8ebf;" parent="1" edge="1">
          <mxGeometry width="50" height="50" relative="1" as="geometry">
            <mxPoint x="80" y="79.33" as="sourcePoint"/>
            <mxPoint x="140" y="79.33" as="targetPoint"/>
          </mxGeometry>
        </mxCell>
        <mxCell id="1qMsUIi2s9RzqLhKU2Hj-15" value="" style="endArrow=classic;html=1;rounded=1;dashed=1;sketch=1;strokeWidth=1;fillColor=#ffe6cc;strokeColor=#d79b00;" parent="1" source="1qMsUIi2s9RzqLhKU2Hj-14" target="1qMsUIi2s9RzqLhKU2Hj-16" edge="1">
          <mxGeometry width="50" height="50" relative="1" as="geometry">
            <mxPoint x="240" y="220" as="sourcePoint"/>
            <mxPoint x="240" y="50" as="targetPoint"/>
          </mxGeometry>
        </mxCell>
        <mxCell id="1qMsUIi2s9RzqLhKU2Hj-16" value="interface of resource2" style="text;html=1;align=center;verticalAlign=middle;resizable=0;points=[];autosize=1;strokeColor=none;fillColor=none;" parent="1" vertex="1">
          <mxGeometry x="290" y="70" width="130" height="20" as="geometry"/>
        </mxCell>
      </root>
    </mxGraphModel>
  </diagram>
</mxfile>
